<svg width="16" height="16" viewBox="0 0 16 16" fill="none" xmlns="http://www.w3.org/2000/svg">
<path d="M3.54436 12.9591C3.94991 12.0036 4.89678 11.3335 6.00016 11.3335H10.0002C11.1035 11.3335 12.0504 12.0036 12.456 12.9591M10.6668 6.3335C10.6668 7.80626 9.47292 9.00016 8.00016 9.00016C6.5274 9.00016 5.3335 7.80626 5.3335 6.3335C5.3335 4.86074 6.5274 3.66683 8.00016 3.66683C9.47292 3.66683 10.6668 4.86074 10.6668 6.3335ZM14.6668 8.00016C14.6668 11.6821 11.6821 14.6668 8.00016 14.6668C4.31826 14.6668 1.3335 11.6821 1.3335 8.00016C1.3335 4.31826 4.31826 1.3335 8.00016 1.3335C11.6821 1.3335 14.6668 4.31826 14.6668 8.00016Z" stroke="#3448AF" stroke-width="1.5" stroke-linecap="round" stroke-linejoin="round"/>
</svg>
